<?xml version="1.0" encoding="utf-8"?>
<!-- Generator: Adobe Illustrator 27.5.0, SVG Export Plug-In . SVG Version: 6.00 Build 0)  -->
<svg version="1.1" xmlns="http://www.w3.org/2000/svg" xmlns:xlink="http://www.w3.org/1999/xlink" x="0px" y="0px"
	 viewBox="0 0 500 500" style="enable-background:new 0 0 500 500;" xml:space="preserve">
<g id="BACKGROUND">
	<g>
		<path style="fill:#D7F7EB;" d="M374.536,127.156c24.122,24.475,47.836,56.28,51.84,91.77
			c5.294,46.916-4.28,107.779-41.082,146.207c-37.115,38.755-109.475,44.809-154.396,18.416
			c-34.748-20.416-50.21-58.562-92.305-60.884c-18.445-1.018-23.429,5.867-32.585,1.225
			c-32.717-16.587-39.289-140.084,23.184-206.04C196.555,46.734,307.469,59.108,374.536,127.156z"/>
	</g>
</g>
<g id="OBJECTS">
	<g>
		<g>
			<g>
				<g id="XMLID_28_">
					<path style="fill:#D4A01D;" d="M89.631,168.471l46.586-0.129c1.775-0.005,3.199,1.467,3.134,3.241l-2.035,56.116
						c-0.061,1.679-1.437,3.01-3.117,3.014l-77.779,0.215c-1.68,0.005-3.064-1.319-3.134-2.997l-2.345-56.104
						c-0.074-1.774,1.341-3.254,3.117-3.258l0,0C55.471,168.566,88.218,168.475,89.631,168.471z"/>
				</g>
				<g>
					<polygon style="fill:#FFFFFF;stroke:#7AABFD;stroke-linecap:round;stroke-miterlimit:10;" points="100.111,141.24 
						56.25,151.091 71.038,216.937 120.553,205.816 106.979,145.377 					"/>
					<g>
						
							<line style="fill:none;stroke:#7AABFD;stroke-linecap:round;stroke-miterlimit:10;" x1="67.615" y1="163.595" x2="100.837" y2="156.134"/>
						
							<line style="fill:none;stroke:#7AABFD;stroke-linecap:round;stroke-miterlimit:10;" x1="69.131" y1="170.344" x2="102.353" y2="162.883"/>
						
							<line style="fill:none;stroke:#7AABFD;stroke-linecap:round;stroke-miterlimit:10;" x1="70.647" y1="177.094" x2="103.869" y2="169.633"/>
						
							<line style="fill:none;stroke:#7AABFD;stroke-linecap:round;stroke-miterlimit:10;" x1="72.163" y1="183.843" x2="105.385" y2="176.382"/>
						
							<line style="fill:none;stroke:#7AABFD;stroke-linecap:round;stroke-miterlimit:10;" x1="73.679" y1="190.593" x2="106.901" y2="183.132"/>
						
							<line style="fill:none;stroke:#7AABFD;stroke-linecap:round;stroke-miterlimit:10;" x1="75.195" y1="197.342" x2="108.416" y2="189.881"/>
						
							<line style="fill:none;stroke:#7AABFD;stroke-linecap:round;stroke-miterlimit:10;" x1="76.71" y1="204.092" x2="109.932" y2="196.63"/>
					</g>
					<polyline style="fill:none;stroke:#7AABFD;stroke-linecap:round;stroke-miterlimit:10;" points="98.644,143.53 
						100.019,149.652 105.991,148.311 					"/>
				</g>
				<g>
					<polygon style="fill:#FFFFFF;stroke:#7AABFD;stroke-linecap:round;stroke-miterlimit:10;" points="136.077,120.497 
						91.466,114.957 83.149,181.929 133.511,188.183 141.145,126.71 					"/>
					<g>
						
							<line style="fill:none;stroke:#7AABFD;stroke-linecap:round;stroke-miterlimit:10;" x1="97.941" y1="130.565" x2="131.731" y2="134.761"/>
						
							<line style="fill:none;stroke:#7AABFD;stroke-linecap:round;stroke-miterlimit:10;" x1="97.089" y1="137.43" x2="130.879" y2="141.626"/>
						
							<line style="fill:none;stroke:#7AABFD;stroke-linecap:round;stroke-miterlimit:10;" x1="96.236" y1="144.295" x2="130.026" y2="148.491"/>
						
							<line style="fill:none;stroke:#7AABFD;stroke-linecap:round;stroke-miterlimit:10;" x1="95.384" y1="151.159" x2="129.174" y2="155.355"/>
						
							<line style="fill:none;stroke:#7AABFD;stroke-linecap:round;stroke-miterlimit:10;" x1="94.531" y1="158.024" x2="128.321" y2="162.22"/>
						
							<line style="fill:none;stroke:#7AABFD;stroke-linecap:round;stroke-miterlimit:10;" x1="93.679" y1="164.889" x2="127.469" y2="169.085"/>
						
							<line style="fill:none;stroke:#7AABFD;stroke-linecap:round;stroke-miterlimit:10;" x1="92.826" y1="171.754" x2="126.616" y2="175.95"/>
					</g>
					<polyline style="fill:none;stroke:#7AABFD;stroke-linecap:round;stroke-miterlimit:10;" points="133.923,122.157 
						133.149,128.383 139.224,129.138 					"/>
				</g>
				<g id="XMLID_24_">
					<path style="fill:#FFC527;" d="M133.204,170.548l-1.2-4.391c-0.373-1.363-1.613-2.307-3.026-2.303l-21.119,0.058
						c-1.413,0.004-2.648,0.955-3.013,2.32l-1.176,4.397c-0.365,1.365-1.6,2.316-3.013,2.32l-46.586,0.129
						c-1.776,0.005-3.191,1.485-3.117,3.259l2.345,56.104c0.07,1.679,1.454,3.002,3.134,2.997l77.779-0.215
						c1.68-0.005,3.056-1.336,3.117-3.014l2.035-56.116c0.064-1.774-1.359-3.246-3.135-3.241l0,0
						C134.816,172.855,133.576,171.911,133.204,170.548z"/>
				</g>
				<path style="fill:#FFFFFF;" d="M128.173,228.876l-28.918,0.08c-0.937,0.003-1.698-0.755-1.701-1.691l-0.012-4.17
					c-0.003-0.937,0.755-1.698,1.691-1.701l28.918-0.08c0.936-0.003,1.698,0.754,1.701,1.691l0.012,4.17
					C129.867,228.112,129.109,228.874,128.173,228.876z"/>
			</g>
		</g>
	</g>
	<g>
		<g>
			<g>
				<g id="XMLID_5_">
					<path style="fill:#D4A01D;" d="M408.155,171.98l46.586-0.129c1.775-0.005,3.199,1.467,3.135,3.241l-2.035,56.116
						c-0.061,1.679-1.437,3.01-3.117,3.015l-77.779,0.215c-1.68,0.005-3.064-1.319-3.134-2.997l-2.345-56.104
						c-0.074-1.774,1.341-3.254,3.117-3.258l0,0C373.995,172.074,406.742,171.984,408.155,171.98z"/>
				</g>
				<g id="XMLID_1_">
					<path style="fill:#FFC527;" d="M451.727,174.057l-1.2-4.39c-0.373-1.363-1.613-2.307-3.026-2.303l-21.119,0.058
						c-1.413,0.004-2.648,0.955-3.013,2.32l-1.176,4.397c-0.365,1.365-1.6,2.316-3.013,2.32l-46.586,0.129
						c-1.775,0.005-3.191,1.485-3.117,3.259l2.345,56.104c0.07,1.678,1.454,3.002,3.134,2.997l77.779-0.215
						c1.68-0.005,3.056-1.336,3.117-3.014l2.035-56.116c0.065-1.774-1.359-3.246-3.134-3.241l0,0
						C453.34,176.364,452.1,175.42,451.727,174.057z"/>
				</g>
				<path style="fill:#FFFFFF;" d="M446.697,232.385l-28.918,0.08c-0.937,0.003-1.698-0.755-1.701-1.691l-0.012-4.17
					c-0.003-0.937,0.755-1.698,1.691-1.701l28.918-0.08c0.937-0.003,1.698,0.755,1.701,1.691l0.012,4.17
					C448.39,231.621,447.633,232.382,446.697,232.385z"/>
			</g>
		</g>
	</g>
	<g>
		<polygon style="fill:#FFFFFF;stroke:#7AABFD;stroke-linecap:round;stroke-miterlimit:10;" points="240.816,44.436 197.641,31.917 
			178.847,96.734 227.588,110.867 244.839,51.372 		"/>
		<g>
			
				<line style="fill:none;stroke:#7AABFD;stroke-linecap:round;stroke-miterlimit:10;" x1="201.569" y1="48.352" x2="234.271" y2="57.835"/>
			
				<line style="fill:none;stroke:#7AABFD;stroke-linecap:round;stroke-miterlimit:10;" x1="199.642" y1="54.996" x2="232.345" y2="64.479"/>
			
				<line style="fill:none;stroke:#7AABFD;stroke-linecap:round;stroke-miterlimit:10;" x1="197.716" y1="61.64" x2="230.418" y2="71.123"/>
			
				<line style="fill:none;stroke:#7AABFD;stroke-linecap:round;stroke-miterlimit:10;" x1="195.789" y1="68.284" x2="228.492" y2="77.767"/>
			
				<line style="fill:none;stroke:#7AABFD;stroke-linecap:round;stroke-miterlimit:10;" x1="193.863" y1="74.928" x2="226.565" y2="84.41"/>
			
				<line style="fill:none;stroke:#7AABFD;stroke-linecap:round;stroke-miterlimit:10;" x1="191.936" y1="81.572" x2="224.639" y2="91.054"/>
			
				<line style="fill:none;stroke:#7AABFD;stroke-linecap:round;stroke-miterlimit:10;" x1="190.01" y1="88.216" x2="222.713" y2="97.698"/>
		</g>
		<polyline style="fill:none;stroke:#7AABFD;stroke-linecap:round;stroke-miterlimit:10;" points="238.427,45.735 236.679,51.761 
			242.558,53.466 		"/>
	</g>
	<g>
		<polygon style="fill:#FFFFFF;stroke:#7AABFD;stroke-linecap:round;stroke-miterlimit:10;" points="394.895,96.791 370.283,59.173 
			313.81,96.121 341.594,138.589 393.431,104.674 		"/>
		<g>
			
				<line style="fill:none;stroke:#7AABFD;stroke-linecap:round;stroke-miterlimit:10;" x1="362.561" y1="74.203" x2="381.203" y2="102.697"/>
			
				<line style="fill:none;stroke:#7AABFD;stroke-linecap:round;stroke-miterlimit:10;" x1="356.772" y1="77.991" x2="375.414" y2="106.484"/>
			
				<line style="fill:none;stroke:#7AABFD;stroke-linecap:round;stroke-miterlimit:10;" x1="350.984" y1="81.778" x2="369.625" y2="110.271"/>
			
				<line style="fill:none;stroke:#7AABFD;stroke-linecap:round;stroke-miterlimit:10;" x1="345.195" y1="85.565" x2="363.837" y2="114.058"/>
			
				<line style="fill:none;stroke:#7AABFD;stroke-linecap:round;stroke-miterlimit:10;" x1="339.406" y1="89.353" x2="358.048" y2="117.846"/>
			
				<line style="fill:none;stroke:#7AABFD;stroke-linecap:round;stroke-miterlimit:10;" x1="333.618" y1="93.14" x2="352.259" y2="121.633"/>
			
				<line style="fill:none;stroke:#7AABFD;stroke-linecap:round;stroke-miterlimit:10;" x1="327.829" y1="96.927" x2="346.471" y2="125.42"/>
		</g>
		<polyline style="fill:none;stroke:#7AABFD;stroke-linecap:round;stroke-miterlimit:10;" points="392.236,96.221 386.986,99.656 
			390.337,104.778 		"/>
	</g>
	<g>
		<polygon style="fill:#FFFFFF;" points="322.653,146.573 288.823,123.647 288.823,134.703 240.347,134.703 240.347,157.686 
			288.823,157.686 288.823,169.499 		"/>
		<polygon style="fill:#FFFFFF;" points="163.395,201.327 197.225,224.253 197.225,213.197 245.701,213.197 245.701,190.213 
			197.225,190.213 197.225,178.401 		"/>
	</g>
	<g>
		<g>
			<g>
				<path style="fill:#5E8FAB;" d="M316.115,428.309l-77.088-10.102c-10.075-1.32-17.609-9.907-17.609-20.068V267.529
					c0-12.223,10.75-21.656,22.869-20.068l77.088,10.102c10.075,1.32,17.61,9.906,17.61,20.068v130.61
					C338.984,420.463,328.233,429.897,316.115,428.309z"/>
				<path style="fill:#A4CAD6;" d="M310.451,429.839l-77.088-10.102c-10.075-1.32-17.61-9.906-17.61-20.068v-130.61
					c0-12.222,10.751-21.656,22.869-20.068l77.088,10.102c10.075,1.32,17.61,9.906,17.61,20.068v130.61
					C333.32,421.993,322.569,431.427,310.451,429.839z"/>
			</g>
			<path style="fill:#9C4E36;" d="M265.199,194.553c0,0-49.446-2.823-35.478,71.577c0,0,45.04,30.945,80.942-3.324
				C310.662,262.806,314.711,197.05,265.199,194.553z"/>
			<path style="fill:#FFFFFF;" d="M248.258,246.059c-0.111,0.319-0.249,0.621-0.393,0.92c2.768,0.956,4.765,3.581,4.765,6.67
				c0,3.893-3.167,7.061-7.061,7.061c-3.893,0-7.061-3.168-7.061-7.061c0-2.592,1.408-4.857,3.496-6.085v-1.134
				c-2.659,1.319-4.496,4.055-4.496,7.219c0,4.445,3.616,8.061,8.061,8.061c4.444,0,8.061-3.616,8.061-8.061
				C253.629,250.148,251.382,247.17,248.258,246.059z"/>
			<g>
				<polygon style="fill:#FF3DB5;" points="206.818,385.279 187.551,344.805 239.124,269.052 258.031,310.032 				"/>
			</g>
			<path style="fill:#FF3DB5;" d="M253.061,264.834l42.189,10.936c22.282,7.533,34.479,25.792,31.433,38.238l-25.007,66.918
				l1.036,37.453l-41.995,3.5c-6.896,0.575-13.829,0.566-20.725-0.026l-17.038-1.462l-0.023-66.455
				c-16.163-31.668,5.59-73.481,16.192-84.884c2.008-2.159,4.103-3.394,6.403-4.12C247.965,264.163,250.586,264.192,253.061,264.834
				z"/>
			<polygon style="fill:#DB7758;" points="95.255,414.464 406.031,414.464 393.741,405.495 107.545,405.495 			"/>
			<polygon style="fill:#FFFFFF;" points="289.221,274.193 254.117,324.892 253.061,264.834 269.333,269.052 			"/>
			<path style="fill:#FFB991;" d="M287.308,235.603l0.814,38.306c-0.371,3.76-10.067,9.384-20.179,11.03
				c-5.933,0.965-11.028-4.287-9.998-10.21l4.616-26.573L287.308,235.603z"/>
			<path style="fill:#E6A27A;" d="M259.022,268.581l2.095-11.973l21.704-9.322l-0.888,4.801
				C281.933,252.087,278.715,260.017,259.022,268.581z"/>
			<path style="fill:#FFB991;" d="M286.286,252.324l-22.788,10.521c-4.457,2.228-9.533,1.861-13.51-0.528
				c-3.113-1.869-5.156-5.111-6.043-8.632l-9.534-28.205l39.927-16.148L286.286,252.324z"/>
			<path style="fill:#9C4E36;" d="M234.41,225.48c-0.346,2.052,35.364,11.942,41.581,5.68
				c12.193-12.278,11.561,14.899,11.561,14.899s27.872-44.11-17.699-51.217C252.291,192.103,237.302,208.345,234.41,225.48z"/>
			<path style="fill:#284C73;" d="M245.43,236.331c0.325,0.65,0.061,1.44-0.589,1.765c-0.65,0.325-1.44,0.062-1.765-0.589
				c-0.325-0.65-0.062-1.44,0.588-1.765C244.314,235.417,245.105,235.68,245.43,236.331z"/>
			<path style="fill:#FFB991;" d="M237.618,234.342l-1.174,9.004c-0.152,1.166,0.579,2.265,1.713,2.575l3.719,1.02L237.618,234.342z
				"/>
			<g>
				<g>
					<g>
						<polygon style="fill:#3B6FA8;" points="235.596,409.864 133.634,407.42 165.472,396.149 307.071,404.971 						"/>
					</g>
					<path style="fill:#284C73;" d="M232.433,409.261l-36.135-9.226l6.417,5.748l29.1,7.608c0.076,0.02,0.139,0.036,0.216,0.042
						c3.601,0.293,70.65-3.352,72.581-3.824c1.955-0.479,2.459-4.638,2.459-4.638S234.501,409.655,232.433,409.261z"/>
				</g>
				<g>
					<path style="fill:#284C73;" d="M231.368,413.335l-94.651-4.096c-7.492-2.332-7.357-14.219-7.357-14.219l-13.267-70.217
						c-0.642-3.398-0.136-6.991,1.77-9.876c2-3.029,4.083-4.237,8.033-4.122l94.651,4.095c6.273,1.208,5.923,7.101,7.357,14.22
						l13.863,73.378C240.927,409.417,236.271,414.269,231.368,413.335z"/>
					<g>
						<path style="fill:#3B6FA8;" d="M178.234,361.54c2.63,4.415,2.9,9.947,0.601,12.357c-2.298,2.411-6.292,0.785-8.922-3.629
							c-2.63-4.414-2.899-9.947-0.601-12.357C171.61,355.501,175.604,357.126,178.234,361.54z"/>
					</g>
				</g>
			</g>
			<path style="fill:#FF3DB5;" d="M370.243,374.803l-35.112,24.405l-27.258-27.859l20.342-13.362l-12.895-21.109l-26.099-62.684
				l21.519,6.331c16.218,5.171,22.398,10.452,29.821,26.315L370.243,374.803z"/>
			<polygon style="fill:#FFB991;" points="316.103,374.803 299.744,389.31 305.15,404.81 328.255,395.875 			"/>
			
				<rect x="300.447" y="376.984" transform="matrix(0.5488 0.8359 -0.8359 0.5488 467.062 -94.9267)" style="fill:#FFFFFF;" width="42.053" height="16.504"/>
			<path style="fill:#FFFFFF;" d="M245.972,250.526c0,0,6.195-2.44,10.182-8.42C256.153,242.106,255.928,255.918,245.972,250.526z"
				/>
			
				<rect x="95.255" y="414.464" transform="matrix(-1 -1.224647e-16 1.224647e-16 -1 501.2862 844.4771)" style="fill:#9C4E36;" width="310.776" height="15.55"/>
			
				<rect x="253.65" y="230.149" transform="matrix(0.9875 -0.1575 0.1575 0.9875 -33.1066 44.6761)" style="fill:#FF3DB5;" width="23.213" height="2.04"/>
			<path style="fill:#FFB991;" d="M290.143,234.169c-0.955,4.774-5.599,7.869-10.373,6.914c-4.774-0.955-7.869-5.6-6.914-10.374
				c0.955-4.774,5.599-7.869,10.373-6.914C288.003,224.751,291.099,229.395,290.143,234.169z"/>
			<path style="fill:#FFFFFF;" d="M289.819,235.335c-0.111,0.319-0.249,0.621-0.393,0.92c2.768,0.956,4.765,3.581,4.765,6.67
				c0,3.893-3.167,7.061-7.061,7.061c-3.893,0-7.061-3.167-7.061-7.061c0-2.592,1.408-4.857,3.496-6.085v-1.134
				c-2.659,1.319-4.496,4.055-4.496,7.219c0,4.445,3.616,8.061,8.061,8.061s8.061-3.616,8.061-8.061
				C295.191,239.424,292.944,236.446,289.819,235.335z"/>
			<path style="fill:#284C73;" d="M280.919,231.743c0.009-0.047,0.029-0.081,0.065-0.113c0.037-0.051,0.054-0.116,0.094-0.165
				c1.255-1.53,3.804-1.263,3.913-1.25c0.12,0.013,0.207,0.122,0.193,0.243c-0.013,0.119-0.121,0.207-0.242,0.193
				c-0.022-0.001-2.007-0.199-3.194,0.787c2.081-0.265,2.799,1.472,2.807,1.492c0.04,0.105-0.005,0.221-0.101,0.272
				c-0.007,0.004-0.016,0.008-0.025,0.011c-0.113,0.043-0.24-0.013-0.284-0.126c-0.028-0.072-0.712-1.714-2.853-1.118
				c-0.53,0.823-0.573,2.001-0.077,3.541c0.033,0.103-0.014,0.212-0.105,0.261c-0.011,0.006-0.024,0.012-0.036,0.016
				c-0.116,0.037-0.239-0.026-0.276-0.141C280.259,233.978,280.321,232.68,280.919,231.743z"/>
			<g>
				<g>
					<path style="fill:#FF3DB5;" d="M250.219,243.848c-4.497,2.15-9.904,0.239-12.053-4.257c-2.146-4.499-0.221-9.928,4.26-12.052
						c4.496-2.15,9.903-0.24,12.051,4.256l0.001,0.002c1.911,4.003,0.605,8.728-2.877,11.232
						C251.173,243.338,250.711,243.614,250.219,243.848z M252.849,232.574c-1.72-3.599-6.047-5.126-9.641-3.407
						c-3.588,1.71-5.127,6.046-3.411,9.645c1.72,3.598,6.047,5.126,9.643,3.408C253.029,240.501,254.566,236.174,252.849,232.574
						L252.849,232.574z"/>
				</g>
			</g>
			<g>
				<g>
					<path style="fill:#FFB991;" d="M305.911,404.427c0,0-8.032,3.851-18.104-3.876c-10.072-7.728-6.838-7.786-13.657-1.733
						c-5.028,4.464-8.596,4.814-10.558,4.133c-0.582-0.202-0.82-0.888-0.476-1.399c1.876-2.781,7.531-10.981,9.534-11.788
						c2.418-0.974,10.371,0.219,10.371,0.219l19.711-0.531L305.911,404.427z"/>
					<path style="fill:#FFB991;" d="M292.313,391.628c0,0-20.47-6.543-23.762-5.189c-14.546,5.983-16.774,9.29-16.977,11.378
						c-0.075,0.77,0.722,1.333,1.446,1.06c3.874-1.462,16.396-5.424,20.748-7.309L292.313,391.628z"/>
					<path style="fill:#FFB991;" d="M293.349,393.081c0,0-18.419-11.07-21.934-10.509c-16.323,2.609-19.392,6.366-19.824,8.281
						c-0.14,0.62,0.408,1.181,1.039,1.099c3.829-0.496,17.933-2.341,22.684-3.19L293.349,393.081z"/>
					<path style="fill:#FFB991;" d="M294.605,396.259c0,0-15.415-14.973-18.966-15.227c-17.668-1.26-20.818,2.228-21.33,3.91
						c-0.132,0.433,0.164,0.873,0.614,0.918c3.359,0.341,18.153,1.826,23.102,2.088L294.605,396.259z"/>
					<path style="fill:#FFB991;" d="M307.543,393.82c0,0-7.734-8.295-16.994-11.443c-6.221-2.115-11.725-3.974-12.745-4.28
						c-10.48-3.148-14.228-2.29-15.568-1.257c-0.59,0.455-0.521,1.366,0.117,1.751c4.252,2.568,22.912,13.771,26.466,14.767
						L307.543,393.82z"/>
				</g>
				<g>
					<polyline style="fill:none;stroke:#284C73;stroke-width:0.25;stroke-linecap:round;stroke-miterlimit:10;" points="
						258.761,391.147 268.551,386.44 272.231,387.025 					"/>
					<polyline style="fill:none;stroke:#284C73;stroke-width:0.25;stroke-linecap:round;stroke-miterlimit:10;" points="
						257.403,386.109 269.194,382.552 274.15,383.09 					"/>
					
						<line style="fill:none;stroke:#284C73;stroke-width:0.25;stroke-linecap:round;stroke-miterlimit:10;" x1="266.25" y1="380.569" x2="272.628" y2="379.411"/>
					<polyline style="fill:none;stroke:#284C73;stroke-width:0.25;stroke-linecap:round;stroke-miterlimit:10;" points="
						269.393,393.358 273.355,389.414 280.568,389.238 					"/>
				</g>
			</g>
			<g>
				<polygon style="fill:#284C73;" points="314.113,400.797 309.607,403.71 300.702,387.676 304.176,385.43 				"/>
				<path style="fill:#284C73;" d="M308.547,387.298c2.126,1.966,2.256,5.283,0.289,7.409c-1.966,2.126-5.283,2.256-7.409,0.289
					c-2.126-1.966-2.256-5.283-0.29-7.409C303.104,385.461,306.421,385.332,308.547,387.298z"/>
				<path style="fill:#FFFFFF;" d="M307.501,388.429c1.501,1.388,1.592,3.73,0.204,5.231c-1.388,1.501-3.73,1.593-5.231,0.204
					c-1.501-1.388-1.593-3.73-0.204-5.231C303.657,387.133,306,387.041,307.501,388.429z"/>
			</g>
			<polyline style="fill:none;stroke:#284C73;stroke-width:0.5;stroke-linecap:round;stroke-miterlimit:10;" points="
				222.934,361.599 222.932,353.935 217.346,333.265 			"/>
			
				<line style="fill:none;stroke:#284C73;stroke-width:0.5;stroke-linecap:round;stroke-miterlimit:10;" x1="232.059" y1="279.428" x2="220.14" y2="303.677"/>
			<polyline style="fill:none;stroke:#284C73;stroke-width:0.5;stroke-linecap:round;stroke-miterlimit:10;" points="
				289.221,274.193 316.547,289.379 274.489,312.653 288.122,322.934 256.826,333.265 			"/>
			<polyline style="fill:none;stroke:#284C73;stroke-width:0.5;stroke-linecap:round;stroke-miterlimit:10;" points="
				253.061,264.834 239.15,289.643 248.533,303.729 236.424,310.695 251.062,333.265 			"/>
			<g>
				
					<line style="fill:none;stroke:#284C73;stroke-width:0.5;stroke-linecap:round;stroke-miterlimit:10;" x1="253.061" y1="334.785" x2="253.061" y2="367.467"/>
				<circle style="fill:#E9FFE8;" cx="258.838" cy="343.328" r="1.811"/>
				<path style="fill:#E9FFE8;" d="M260.649,351.126c0,1-0.811,1.811-1.811,1.811c-1,0-1.811-0.811-1.811-1.811
					c0-1,0.811-1.811,1.811-1.811C259.838,349.315,260.649,350.126,260.649,351.126z"/>
				<path style="fill:#E9FFE8;" d="M260.649,358.923c0,1-0.811,1.811-1.811,1.811c-1,0-1.811-0.811-1.811-1.811
					c0-1,0.811-1.811,1.811-1.811C259.838,357.113,260.649,357.923,260.649,358.923z"/>
			</g>
		</g>
		<g>
			<path style="fill:#284C73;" d="M364.884,386.077c0,0,11.063-2.773,25.485,0C390.369,386.077,377.857,390.645,364.884,386.077z"/>
			<path style="fill:#303030;" d="M367.336,386.837c8.451,2.277,16.374,0.988,20.355,0.014
				C378.527,385.467,371.017,386.245,367.336,386.837z"/>
			<g>
				<ellipse style="fill:#58B83D;" cx="377.554" cy="380.465" rx="10.572" ry="15.2"/>
				<path style="fill:#59804D;" d="M373.305,366.591c-0.652,2.435-1.213,4.787-1.638,7.156c-0.421,2.363-0.715,4.725-0.765,7.079
					c-0.015,0.294-0.016,0.588-0.014,0.882c0.001,0.294-0.005,0.588,0.011,0.88c0.009,0.293,0.012,0.587,0.025,0.88
					c0.019,0.292,0.043,0.583,0.056,0.877c0.094,1.166,0.229,2.332,0.441,3.488c0.409,2.323,1.097,4.577,1.884,6.942
					c-0.736-0.767-1.418-1.667-1.994-2.704c-0.598-1.019-1.077-2.183-1.484-3.403l-0.281-0.935
					c-0.088-0.315-0.154-0.642-0.232-0.964l-0.112-0.487l-0.086-0.496c-0.052-0.332-0.121-0.662-0.159-0.999
					c-0.186-1.343-0.238-2.716-0.211-4.077c0.061-2.728,0.56-5.383,1.331-7.793c0.391-1.204,0.853-2.352,1.387-3.421
					C372.003,368.436,372.596,367.426,373.305,366.591z"/>
				<path style="fill:#59804D;" d="M377.002,365.382c-0.255,2.568-0.504,5.025-0.694,7.478c-0.188,2.448-0.329,4.873-0.361,7.291
					c-0.037,2.417,0.013,4.827,0.196,7.243c0.159,2.43,0.497,4.829,0.859,7.382c-0.284-0.5-0.584-1.004-0.82-1.556
					c-0.125-0.272-0.244-0.55-0.365-0.828c-0.111-0.284-0.216-0.573-0.324-0.862c-0.22-0.577-0.388-1.183-0.569-1.788
					c-0.157-0.614-0.324-1.231-0.443-1.865c-0.522-2.525-0.735-5.178-0.69-7.8c0.038-2.626,0.345-5.225,0.863-7.715
					c0.264-1.244,0.583-2.461,0.967-3.635C376.006,367.559,376.443,366.415,377.002,365.382z"/>
				<path style="fill:#59804D;" d="M381.694,366.591c0.71,0.835,1.303,1.844,1.842,2.906c0.533,1.069,0.996,2.217,1.387,3.421
					c0.771,2.41,1.27,5.065,1.331,7.793c0.027,1.361-0.025,2.734-0.211,4.077c-0.039,0.337-0.107,0.667-0.159,0.999l-0.086,0.496
					l-0.111,0.487c-0.078,0.322-0.144,0.649-0.232,0.964l-0.281,0.935c-0.408,1.22-0.887,2.384-1.484,3.403
					c-0.577,1.038-1.258,1.938-1.994,2.704c0.787-2.365,1.474-4.619,1.884-6.942c0.212-1.156,0.347-2.323,0.441-3.488
					c0.014-0.294,0.037-0.585,0.056-0.877c0.014-0.293,0.016-0.587,0.025-0.88c0.016-0.292,0.01-0.587,0.011-0.88
					c0.002-0.294,0.001-0.587-0.014-0.882c-0.05-2.354-0.344-4.716-0.765-7.079C382.907,371.378,382.346,369.026,381.694,366.591z"
					/>
				<path style="fill:#59804D;" d="M378.276,365.382c0.558,1.033,0.995,2.176,1.383,3.347c0.384,1.174,0.703,2.391,0.967,3.635
					c0.518,2.49,0.825,5.089,0.863,7.715c0.045,2.622-0.168,5.275-0.69,7.8c-0.12,0.634-0.287,1.251-0.443,1.865
					c-0.182,0.605-0.35,1.211-0.57,1.788c-0.109,0.289-0.213,0.578-0.324,0.862c-0.122,0.278-0.24,0.556-0.365,0.828
					c-0.236,0.552-0.536,1.056-0.82,1.556c0.362-2.553,0.7-4.952,0.859-7.382c0.182-2.417,0.233-4.826,0.196-7.243
					c-0.032-2.418-0.173-4.843-0.361-7.291C378.78,370.407,378.531,367.95,378.276,365.382z"/>
				<g>
					<path style="fill:#FFC527;" d="M377.848,365.454c0,0-2.709,0.648-4.302-2.455C373.546,363,376.191,361.438,377.848,365.454z"/>
					<path style="fill:#FFC527;" d="M377.869,365.455c0,0-2.618-0.951-2.24-4.418C375.629,361.037,378.697,361.19,377.869,365.455z"
						/>
					<path style="fill:#FFC527;" d="M377.881,365.452c0,0,2.773,0.266,3.921-3.027C381.802,362.425,378.966,361.245,377.881,365.452
						z"/>
					<path style="fill:#FFC527;" d="M377.86,365.456c0,0,2.461-1.305,1.606-4.686C379.467,360.77,376.449,361.347,377.86,365.456z"
						/>
				</g>
				<path style="fill:#FFFFFF;" d="M374.439,371.571c0.164,0.19,0.3,0.402,0.438,0.613c0.135,0.214,0.259,0.435,0.378,0.661
					c0.236,0.453,0.448,0.926,0.639,1.416l-0.585-0.088c0.259-0.432,0.538-0.84,0.839-1.22c0.151-0.189,0.306-0.373,0.471-0.545
					c0.168-0.168,0.334-0.339,0.525-0.478c-0.069,0.292-0.164,0.551-0.257,0.814c-0.096,0.258-0.201,0.505-0.311,0.746
					c-0.221,0.48-0.463,0.934-0.725,1.362l-0.338,0.553l-0.247-0.641c-0.189-0.491-0.357-0.999-0.501-1.526
					c-0.071-0.265-0.137-0.533-0.192-0.81C374.519,372.149,374.465,371.871,374.439,371.571z"/>
				<path style="fill:#FFFFFF;" d="M368.457,377.592c0.164,0.19,0.3,0.402,0.438,0.613c0.134,0.214,0.259,0.435,0.378,0.661
					c0.236,0.453,0.448,0.926,0.639,1.416l-0.585-0.088c0.259-0.432,0.538-0.84,0.838-1.22c0.151-0.19,0.307-0.373,0.471-0.545
					c0.168-0.168,0.334-0.339,0.525-0.478c-0.069,0.292-0.164,0.551-0.257,0.814c-0.096,0.258-0.201,0.505-0.311,0.746
					c-0.221,0.48-0.463,0.934-0.725,1.362l-0.338,0.553l-0.247-0.641c-0.189-0.491-0.357-0.999-0.501-1.526
					c-0.071-0.264-0.137-0.533-0.192-0.81C368.537,378.17,368.483,377.892,368.457,377.592z"/>
				<path style="fill:#FFFFFF;" d="M370.39,369.228c0.106,0.261,0.181,0.529,0.258,0.797c0.073,0.268,0.134,0.539,0.19,0.811
					c0.109,0.544,0.191,1.094,0.249,1.649l-0.525-0.38c0.349-0.272,0.71-0.511,1.085-0.714c0.188-0.1,0.378-0.193,0.575-0.27
					c0.198-0.072,0.396-0.147,0.609-0.179c-0.137,0.237-0.289,0.432-0.44,0.63c-0.154,0.193-0.313,0.37-0.474,0.539
					c-0.325,0.337-0.663,0.637-1.014,0.905l-0.453,0.345l-0.073-0.725c-0.056-0.555-0.088-1.116-0.093-1.682
					c-0.001-0.283,0.003-0.568,0.02-0.855C370.322,369.81,370.34,369.522,370.39,369.228z"/>
				<path style="fill:#FFFFFF;" d="M369.07,386.867c0.202,0.086,0.384,0.207,0.567,0.326c0.181,0.123,0.355,0.26,0.525,0.403
					c0.339,0.289,0.66,0.609,0.967,0.956l-0.564,0.241c0.124-0.542,0.273-1.072,0.45-1.589c0.089-0.258,0.184-0.513,0.29-0.763
					c0.111-0.248,0.218-0.497,0.358-0.73c0.013,0.307-0.005,0.599-0.021,0.893c-0.02,0.291-0.051,0.577-0.088,0.86
					c-0.076,0.565-0.179,1.117-0.307,1.657l-0.165,0.697l-0.399-0.457c-0.305-0.35-0.596-0.726-0.869-1.134
					c-0.136-0.206-0.268-0.417-0.393-0.642C369.298,387.357,369.174,387.13,369.07,386.867z"/>
				<path style="fill:#FFFFFF;" d="M373.405,381.8c0.177,0.164,0.328,0.354,0.48,0.543c0.149,0.192,0.289,0.393,0.424,0.6
					c0.268,0.415,0.514,0.852,0.74,1.31l-0.588,0.002c0.226-0.469,0.473-0.917,0.743-1.342c0.136-0.211,0.277-0.418,0.428-0.614
					c0.155-0.193,0.307-0.388,0.487-0.555c-0.047,0.3-0.122,0.573-0.195,0.848c-0.076,0.271-0.162,0.533-0.254,0.789
					c-0.184,0.511-0.391,0.999-0.62,1.465l-0.295,0.602l-0.293-0.6c-0.224-0.459-0.429-0.938-0.611-1.44
					c-0.09-0.252-0.175-0.509-0.251-0.776C373.527,382.362,373.453,382.094,373.405,381.8z"/>
				<path style="fill:#FFFFFF;" d="M382.776,372.617c0.189,0.132,0.355,0.294,0.523,0.455c0.165,0.164,0.32,0.34,0.472,0.521
					c0.301,0.365,0.582,0.757,0.845,1.171l-0.583,0.105c0.184-0.505,0.392-0.993,0.625-1.462c0.117-0.234,0.24-0.463,0.373-0.684
					c0.137-0.218,0.272-0.439,0.436-0.636c-0.022,0.306-0.073,0.59-0.122,0.876c-0.053,0.283-0.116,0.557-0.185,0.828
					c-0.139,0.54-0.304,1.06-0.492,1.563l-0.242,0.649l-0.341-0.544c-0.262-0.417-0.505-0.857-0.729-1.323
					c-0.111-0.235-0.217-0.475-0.315-0.726C382.945,373.155,382.849,372.901,382.776,372.617z"/>
				<path style="fill:#FFFFFF;" d="M379.267,377.94c0.184,0.148,0.343,0.324,0.503,0.499c0.158,0.178,0.306,0.367,0.45,0.56
					c0.286,0.39,0.55,0.805,0.796,1.241l-0.587,0.055c0.205-0.489,0.432-0.958,0.684-1.406c0.126-0.223,0.258-0.442,0.4-0.652
					c0.146-0.206,0.289-0.415,0.462-0.598c-0.034,0.304-0.097,0.583-0.158,0.864c-0.064,0.278-0.139,0.547-0.219,0.811
					c-0.161,0.527-0.347,1.032-0.555,1.518l-0.269,0.627l-0.318-0.572c-0.244-0.438-0.469-0.898-0.673-1.383
					c-0.101-0.244-0.197-0.492-0.284-0.752C379.414,378.491,379.328,378.23,379.267,377.94z"/>
				<path style="fill:#FFFFFF;" d="M378.247,370.033c0.193,0.121,0.363,0.274,0.535,0.425c0.169,0.155,0.329,0.322,0.486,0.494
					c0.311,0.348,0.602,0.723,0.877,1.122l-0.58,0.138c0.17-0.515,0.365-1.014,0.584-1.496c0.111-0.24,0.227-0.476,0.354-0.705
					c0.131-0.226,0.26-0.454,0.418-0.66c-0.013,0.307-0.057,0.594-0.098,0.882c-0.045,0.285-0.101,0.563-0.162,0.837
					c-0.124,0.547-0.275,1.077-0.449,1.59l-0.224,0.662l-0.356-0.525c-0.273-0.402-0.528-0.827-0.764-1.281
					c-0.117-0.228-0.23-0.462-0.334-0.708C378.431,370.56,378.327,370.312,378.247,370.033z"/>
				<path style="fill:#FFFFFF;" d="M378.507,386.151c0.173,0.173,0.319,0.371,0.466,0.568c0.145,0.2,0.279,0.408,0.409,0.621
					c0.258,0.428,0.492,0.879,0.707,1.348l-0.588-0.028c0.237-0.457,0.496-0.892,0.777-1.302c0.141-0.204,0.287-0.403,0.443-0.592
					c0.159-0.185,0.316-0.372,0.5-0.53c-0.055,0.298-0.137,0.566-0.216,0.837c-0.083,0.267-0.176,0.524-0.273,0.776
					c-0.197,0.501-0.416,0.978-0.656,1.432l-0.31,0.586l-0.277-0.615c-0.213-0.471-0.405-0.96-0.575-1.472
					c-0.083-0.257-0.162-0.518-0.231-0.788C378.615,386.72,378.548,386.448,378.507,386.151z"/>
				<path style="fill:#FFFFFF;" d="M383.65,382.149c0.177,0.164,0.328,0.354,0.48,0.543c0.149,0.192,0.289,0.393,0.425,0.6
					c0.268,0.415,0.514,0.852,0.74,1.31l-0.588,0.002c0.226-0.47,0.473-0.917,0.743-1.342c0.136-0.211,0.277-0.418,0.428-0.614
					c0.155-0.193,0.307-0.388,0.487-0.555c-0.047,0.3-0.122,0.573-0.195,0.848c-0.076,0.271-0.162,0.533-0.254,0.789
					c-0.184,0.511-0.391,0.999-0.62,1.466l-0.295,0.602l-0.293-0.6c-0.224-0.459-0.429-0.938-0.612-1.44
					c-0.09-0.252-0.175-0.509-0.251-0.776C383.773,382.711,383.698,382.443,383.65,382.149z"/>
			</g>
			<g>
				<path style="fill:#284C73;" d="M387.524,409.116L387.524,409.116c-6.21,1.245-12.72,1.298-18.963,0.153l-0.833-0.153
					l-2.845-23.039l0.522,0.158c7.857,2.373,16.585,2.373,24.442,0l0.522-0.158L387.524,409.116z"/>
			</g>
		</g>
	</g>
</g>
<g id="DESIGNED_BY_FREEPIK">
	<g>
		<g id="XMLID_319_">
			<g id="XMLID_338_">
				<g id="XMLID_346_">
					<path style="fill:#CCCCCC;" d="M260.104,465.465c-0.432,0.443-0.803,0.931-1.108,1.453l-0.465-0.241
						c-0.067-0.298-0.349-0.503-0.659-0.466c-0.331,0.039-0.568,0.339-0.529,0.67c0.039,0.331,0.339,0.568,0.67,0.529
						c0.066-0.008,0.127-0.026,0.184-0.052l0.451,0.234c-0.251,0.554-0.433,1.139-0.539,1.744l0.747,0.132
						c0.23-1.306,0.85-2.507,1.792-3.473L260.104,465.465z"/>
				</g>
				<g id="XMLID_345_">
					<path style="fill:#CCCCCC;" d="M265.592,463.163c-0.171,0-0.341,0.006-0.51,0.017l-0.074-0.626
						c0.188-0.149,0.296-0.389,0.266-0.645c-0.046-0.393-0.402-0.674-0.795-0.628c-0.393,0.046-0.674,0.402-0.628,0.795
						c0.03,0.254,0.189,0.461,0.404,0.564l0.074,0.624c-0.714,0.116-1.403,0.332-2.06,0.646l0.327,0.684
						c0.934-0.447,1.942-0.673,2.995-0.673c0.496,0,0.993,0.053,1.475,0.158l0.161-0.741
						C266.692,463.222,266.142,463.163,265.592,463.163z"/>
				</g>
				<g id="XMLID_344_">
					<path style="fill:#CCCCCC;" d="M272.194,465.711c0.331-0.04,0.566-0.341,0.526-0.672c-0.04-0.331-0.341-0.566-0.672-0.526
						c-0.309,0.038-0.535,0.304-0.53,0.609l-0.416,0.363c-0.418-0.43-0.889-0.813-1.408-1.139l-0.404,0.641
						c1.134,0.715,2.021,1.726,2.563,2.925l0.69-0.313c-0.251-0.554-0.567-1.072-0.942-1.545l0.402-0.351
						C272.065,465.716,272.129,465.719,272.194,465.711z"/>
				</g>
				<g id="XMLID_343_">
					<path style="fill:#CCCCCC;" d="M265.044,473.372c-0.386,0.023-0.775,0.035-1.157,0.035c-0.88,0-1.733-0.061-2.478-0.179
						c-0.39-0.062-0.846-0.155-1.27-0.292c1.046,1.861,3.069,3.125,5.388,3.125c2.855,0,5.262-1.916,5.95-4.504
						c-0.682,0.449-1.505,0.825-2.459,1.123C267.839,473.047,266.463,473.286,265.044,473.372z"/>
				</g>
				<g id="XMLID_339_">
					<path style="fill:#CCCCCC;" d="M265.592,464.68c-3.352,0-6.08,2.666-6.08,5.943c0,0.426,0.046,0.849,0.137,1.261
						c0.673,0.483,2.706,0.89,5.348,0.731c2.879-0.173,5.297-0.957,6.672-2.159c-0.006-0.195-0.021-0.39-0.045-0.582
						C271.244,466.913,268.65,464.68,265.592,464.68z M263.432,471.194c-1.02,0-1.85-0.83-1.85-1.85c0-1.02,0.83-1.85,1.85-1.85
						c1.02,0,1.85,0.83,1.85,1.85C265.282,470.365,264.452,471.194,263.432,471.194z M268.17,470.286c-0.75,0-1.36-0.61-1.36-1.36
						s0.61-1.361,1.36-1.361c0.75,0,1.361,0.61,1.361,1.361S268.92,470.286,268.17,470.286z"/>
				</g>
			</g>
			<g id="XMLID_336_">
				<path style="fill:#CCCCCC;" d="M281.595,466.547c-0.295-0.116-0.805-0.309-1.382-0.237c-0.551,0.069-0.844,0.341-0.844,1.007
					v0.866h2.228v1.717h-2.228v5.455h-1.932v-5.455h-1.34v-1.717h1.34v-0.888c0-1.68,0.896-2.783,2.568-2.783
					c0.643,0,1.157,0.122,1.59,0.308L281.595,466.547z"/>
			</g>
			<g id="XMLID_334_">
				<path style="fill:#CCCCCC;" d="M286.298,469.879c-0.177-0.03-0.358-0.046-0.526-0.046c-0.896,0-1.51,0.548-1.51,1.614v3.908
					h-1.932v-7.172h1.873v0.785c0.451-0.673,1.14-0.977,2.021-0.977c0.414,0,0.848,0.128,1.094,0.337L286.298,469.879z"/>
			</g>
			<g id="XMLID_331_">
				<path style="fill:#CCCCCC;" d="M293.965,471.757c0,0.222-0.015,0.489-0.037,0.651h-5.085c0.207,1.036,0.933,1.488,1.843,1.488
					c0.622,0,1.295-0.252,1.813-0.688l1.133,1.243c-0.814,0.748-1.85,1.088-3.057,1.088c-2.198,0-3.723-1.495-3.723-3.753
					c0-2.258,1.48-3.797,3.627-3.797C292.544,467.99,293.958,469.522,293.965,471.757z M288.851,471.091h3.175
					c-0.177-0.918-0.733-1.436-1.562-1.436C289.554,469.655,289.021,470.203,288.851,471.091z"/>
			</g>
			<g id="XMLID_328_">
				<path style="fill:#CCCCCC;" d="M301.618,471.757c0,0.222-0.015,0.489-0.037,0.651h-5.085c0.207,1.036,0.933,1.488,1.843,1.488
					c0.622,0,1.295-0.252,1.814-0.688l1.132,1.243c-0.814,0.748-1.85,1.088-3.057,1.088c-2.198,0-3.723-1.495-3.723-3.753
					c0-2.258,1.48-3.797,3.627-3.797C300.197,467.99,301.611,469.522,301.618,471.757z M296.504,471.091h3.175
					c-0.178-0.918-0.733-1.436-1.562-1.436C297.207,469.655,296.674,470.203,296.504,471.091z"/>
			</g>
			<g id="XMLID_325_">
				<path style="fill:#CCCCCC;" d="M309.964,471.764c0,2.154-1.495,3.775-3.471,3.775c-0.962,0-1.643-0.378-2.109-0.933v3.708
					h-1.924v-10.133h1.887v0.792c0.466-0.585,1.155-0.984,2.139-0.984C308.469,467.99,309.964,469.61,309.964,471.764z
					 M304.287,471.764c0,1.132,0.748,1.976,1.843,1.976c1.14,0,1.85-0.881,1.85-1.976c0-1.095-0.71-1.976-1.85-1.976
					C305.035,469.788,304.287,470.632,304.287,471.764z"/>
			</g>
			<g id="XMLID_322_">
				<path style="fill:#CCCCCC;" d="M313.068,465.836c0,0.696-0.54,1.229-1.236,1.229c-0.696,0-1.229-0.533-1.229-1.229
					c0-0.696,0.533-1.243,1.229-1.243C312.527,464.592,313.068,465.14,313.068,465.836z M312.809,475.354h-1.932v-7.172h1.932
					V475.354z"/>
			</g>
			<g id="XMLID_320_">
				<path style="fill:#CCCCCC;" d="M316.032,470.736l2.701-2.554h2.368l-3.479,3.375l3.501,3.797h-2.376l-2.716-2.901v2.901H314.1
					v-10.658h1.932V470.736z"/>
			</g>
		</g>
		<g>
			<g>
				<path style="fill:#CCCCCC;" d="M184.412,475.289v-1.055c-0.527,0.718-1.391,1.23-2.387,1.23c-1.846,0-3.149-1.406-3.149-3.706
					c0-2.256,1.289-3.721,3.149-3.721c0.952,0,1.816,0.469,2.387,1.245v-3.765h1.099v9.77H184.412z M184.412,473.37v-3.208
					c-0.395-0.615-1.245-1.143-2.124-1.143c-1.421,0-2.27,1.172-2.27,2.739c0,1.567,0.85,2.724,2.27,2.724
					C183.168,474.483,184.017,473.986,184.412,473.37z"/>
			</g>
			<g>
				<path style="fill:#CCCCCC;" d="M186.932,471.744c0-2.051,1.465-3.706,3.486-3.706c2.139,0,3.398,1.67,3.398,3.794v0.279h-5.727
					c0.088,1.333,1.025,2.446,2.549,2.446c0.805,0,1.626-0.322,2.182-0.894l0.527,0.718c-0.703,0.703-1.655,1.084-2.812,1.084
					C188.44,475.465,186.932,473.956,186.932,471.744z M190.403,468.947c-1.509,0-2.256,1.274-2.314,2.358h4.643
					C192.718,470.25,192.015,468.947,190.403,468.947z"/>
			</g>
			<g>
				<path style="fill:#CCCCCC;" d="M194.607,474.351l0.571-0.791c0.469,0.542,1.362,1.011,2.329,1.011
					c1.084,0,1.67-0.513,1.67-1.216c0-1.714-4.38-0.659-4.38-3.281c0-1.098,0.952-2.036,2.636-2.036
					c1.201,0,2.051,0.454,2.622,1.026l-0.513,0.762c-0.424-0.513-1.201-0.894-2.109-0.894c-0.967,0-1.567,0.483-1.567,1.113
					c0,1.552,4.38,0.527,4.38,3.281c0,1.187-0.952,2.138-2.783,2.138C196.306,475.465,195.325,475.113,194.607,474.351z"/>
			</g>
			<g>
				<path style="fill:#CCCCCC;" d="M201.477,466.471c0-0.41,0.337-0.747,0.732-0.747c0.41,0,0.747,0.337,0.747,0.747
					c0,0.41-0.337,0.732-0.747,0.732C201.814,467.203,201.477,466.881,201.477,466.471z M201.667,475.289v-7.075h1.099v7.075
					H201.667z"/>
			</g>
			<g>
				<path style="fill:#CCCCCC;" d="M204.582,477.105l0.556-0.82c0.586,0.703,1.289,0.967,2.3,0.967c1.172,0,2.27-0.571,2.27-2.124
					v-1.011c-0.513,0.718-1.377,1.26-2.373,1.26c-1.845,0-3.149-1.377-3.149-3.662c0-2.27,1.289-3.677,3.149-3.677
					c0.952,0,1.802,0.469,2.373,1.245v-1.069h1.098v6.87c0,2.344-1.641,3.076-3.369,3.076
					C206.237,478.16,205.417,477.926,204.582,477.105z M209.709,473.253v-3.091c-0.381-0.615-1.23-1.143-2.109-1.143
					c-1.421,0-2.27,1.128-2.27,2.695c0,1.553,0.849,2.695,2.27,2.695C208.478,474.41,209.328,473.868,209.709,473.253z"/>
			</g>
			<g>
				<path style="fill:#CCCCCC;" d="M217.413,475.289v-4.629c0-1.245-0.63-1.641-1.582-1.641c-0.865,0-1.685,0.527-2.095,1.099v5.17
					h-1.099v-7.075h1.099v1.025c0.498-0.586,1.464-1.201,2.519-1.201c1.48,0,2.256,0.747,2.256,2.285v4.966H217.413z"/>
			</g>
			<g>
				<path style="fill:#CCCCCC;" d="M219.932,471.744c0-2.051,1.465-3.706,3.486-3.706c2.139,0,3.398,1.67,3.398,3.794v0.279h-5.727
					c0.088,1.333,1.025,2.446,2.549,2.446c0.806,0,1.626-0.322,2.183-0.894l0.527,0.718c-0.703,0.703-1.655,1.084-2.812,1.084
					C221.441,475.465,219.932,473.956,219.932,471.744z M223.404,468.947c-1.509,0-2.256,1.274-2.314,2.358h4.643
					C225.718,470.25,225.015,468.947,223.404,468.947z"/>
			</g>
			<g>
				<path style="fill:#CCCCCC;" d="M233.35,475.289v-1.055c-0.527,0.718-1.392,1.23-2.388,1.23c-1.846,0-3.149-1.406-3.149-3.706
					c0-2.256,1.289-3.721,3.149-3.721c0.952,0,1.817,0.469,2.388,1.245v-3.765h1.098v9.77H233.35z M233.35,473.37v-3.208
					c-0.396-0.615-1.245-1.143-2.124-1.143c-1.421,0-2.27,1.172-2.27,2.739c0,1.567,0.849,2.724,2.27,2.724
					C232.105,474.483,232.954,473.986,233.35,473.37z"/>
			</g>
			<g>
				<path style="fill:#CCCCCC;" d="M239.692,475.289v-9.77h1.098v3.765c0.572-0.776,1.421-1.245,2.388-1.245
					c1.845,0,3.149,1.465,3.149,3.721c0,2.299-1.304,3.706-3.149,3.706c-0.996,0-1.86-0.513-2.388-1.23v1.055H239.692z
					 M242.9,474.483c1.436,0,2.285-1.157,2.285-2.724c0-1.568-0.85-2.739-2.285-2.739c-0.864,0-1.728,0.527-2.109,1.143v3.208
					C241.171,473.986,242.036,474.483,242.9,474.483z"/>
			</g>
			<g>
				<path style="fill:#CCCCCC;" d="M247.528,477.061c0.161,0.073,0.425,0.117,0.601,0.117c0.483,0,0.805-0.161,1.055-0.747
					l0.469-1.069l-2.959-7.148h1.187l2.358,5.8l2.344-5.8h1.201l-3.545,8.51c-0.425,1.025-1.143,1.421-2.08,1.435
					c-0.234,0-0.601-0.044-0.805-0.103L247.528,477.061z"/>
			</g>
		</g>
	</g>
</g>
</svg>
